<?xml version="1.0" encoding="UTF-8" standalone="no"?>
<!DOCTYPE svg PUBLIC "-//W3C//DTD SVG 1.1//EN"
 "http://www.w3.org/Graphics/SVG/1.1/DTD/svg11.dtd">
<!-- Generated by graphviz version 7.1.0 (20230121.1956)
 -->
<!-- Pages: 1 -->
<svg width="343pt" height="251pt"
 viewBox="0.00 0.00 342.90 251.00" xmlns="http://www.w3.org/2000/svg" xmlns:xlink="http://www.w3.org/1999/xlink">
<g id="graph0" class="graph" transform="scale(1 1) rotate(0) translate(4 247)">
<polygon fill="white" stroke="none" points="-4,4 -4,-247 338.9,-247 338.9,4 -4,4"/>
<!-- Activity1 -->
<g id="node1" class="node">
<title>Activity1</title>
<path fill="green" stroke="black" d="M12,-196.5C12,-196.5 55,-196.5 55,-196.5 61,-196.5 67,-202.5 67,-208.5 67,-208.5 67,-230.5 67,-230.5 67,-236.5 61,-242.5 55,-242.5 55,-242.5 12,-242.5 12,-242.5 6,-242.5 0,-236.5 0,-230.5 0,-230.5 0,-208.5 0,-208.5 0,-202.5 6,-196.5 12,-196.5"/>
<text text-anchor="middle" x="33.5" y="-227.3" font-family="Times New Roman,serif" font-size="14.00">Task1</text>
<polyline fill="none" stroke="black" points="0,-219.5 67,-219.5"/>
<text text-anchor="middle" x="33.5" y="-204.3" font-family="Times New Roman,serif" font-size="14.00">Activity1</text>
</g>
<!-- Activity2 -->
<g id="node2" class="node">
<title>Activity2</title>
<path fill="white" stroke="black" d="M108,-98.5C108,-98.5 151,-98.5 151,-98.5 157,-98.5 163,-104.5 163,-110.5 163,-110.5 163,-132.5 163,-132.5 163,-138.5 157,-144.5 151,-144.5 151,-144.5 108,-144.5 108,-144.5 102,-144.5 96,-138.5 96,-132.5 96,-132.5 96,-110.5 96,-110.5 96,-104.5 102,-98.5 108,-98.5"/>
<text text-anchor="middle" x="129.5" y="-129.3" font-family="Times New Roman,serif" font-size="14.00">Task2</text>
<polyline fill="none" stroke="black" points="96,-121.5 163,-121.5"/>
<text text-anchor="middle" x="129.5" y="-106.3" font-family="Times New Roman,serif" font-size="14.00">Activity2</text>
</g>
<!-- Activity1&#45;&gt;Activity2 -->
<g id="edge5" class="edge">
<title>Activity1&#45;&gt;Activity2</title>
<path fill="none" stroke="black" d="M37.48,-196.57C40.4,-185.49 45.32,-172.45 53.5,-163 56.21,-159.86 70.86,-151.84 86.57,-143.75"/>
<polygon fill="black" stroke="black" points="87.73,-147.09 95.05,-139.43 84.55,-140.85 87.73,-147.09"/>
<text text-anchor="middle" x="92" y="-166.8" font-family="Times New Roman,serif" font-size="14.00">Semaphore12</text>
</g>
<!-- Activity3 -->
<g id="node3" class="node">
<title>Activity3</title>
<path fill="white" stroke="black" d="M223,-98.5C223,-98.5 266,-98.5 266,-98.5 272,-98.5 278,-104.5 278,-110.5 278,-110.5 278,-132.5 278,-132.5 278,-138.5 272,-144.5 266,-144.5 266,-144.5 223,-144.5 223,-144.5 217,-144.5 211,-138.5 211,-132.5 211,-132.5 211,-110.5 211,-110.5 211,-104.5 217,-98.5 223,-98.5"/>
<text text-anchor="middle" x="244.5" y="-129.3" font-family="Times New Roman,serif" font-size="14.00">Task3</text>
<polyline fill="none" stroke="black" points="211,-121.5 278,-121.5"/>
<text text-anchor="middle" x="244.5" y="-106.3" font-family="Times New Roman,serif" font-size="14.00">Activity3</text>
</g>
<!-- Activity1&#45;&gt;Activity3 -->
<g id="edge6" class="edge">
<title>Activity1&#45;&gt;Activity3</title>
<path fill="none" stroke="black" d="M66.7,-207.46C86.85,-200.21 112.79,-189.88 134.5,-178 144.56,-172.49 145.57,-168.74 155.5,-163 169.81,-154.73 186.11,-146.9 200.82,-140.36"/>
<polygon fill="black" stroke="black" points="202.04,-143.65 209.81,-136.44 199.24,-137.23 202.04,-143.65"/>
<text text-anchor="middle" x="194" y="-166.8" font-family="Times New Roman,serif" font-size="14.00">Semaphore13</text>
</g>
<!-- Activity4 -->
<g id="node4" class="node">
<title>Activity4</title>
<path fill="white" stroke="black" d="M108,-0.5C108,-0.5 151,-0.5 151,-0.5 157,-0.5 163,-6.5 163,-12.5 163,-12.5 163,-34.5 163,-34.5 163,-40.5 157,-46.5 151,-46.5 151,-46.5 108,-46.5 108,-46.5 102,-46.5 96,-40.5 96,-34.5 96,-34.5 96,-12.5 96,-12.5 96,-6.5 102,-0.5 108,-0.5"/>
<text text-anchor="middle" x="129.5" y="-31.3" font-family="Times New Roman,serif" font-size="14.00">Task4</text>
<polyline fill="none" stroke="black" points="96,-23.5 163,-23.5"/>
<text text-anchor="middle" x="129.5" y="-8.3" font-family="Times New Roman,serif" font-size="14.00">Activity4</text>
</g>
<!-- Activity2&#45;&gt;Activity4 -->
<g id="edge7" class="edge">
<title>Activity2&#45;&gt;Activity4</title>
<path fill="none" stroke="black" d="M129.5,-98.72C129.5,-86.56 129.5,-71.18 129.5,-57.57"/>
<polygon fill="black" stroke="black" points="133,-57.71 129.5,-47.71 126,-57.71 133,-57.71"/>
<text text-anchor="middle" x="168" y="-68.8" font-family="Times New Roman,serif" font-size="14.00">Semaphore24</text>
</g>
<!-- Activity3&#45;&gt;Activity4 -->
<g id="edge8" class="edge">
<title>Activity3&#45;&gt;Activity4</title>
<path fill="none" stroke="black" d="M234.8,-98.73C228.99,-87.58 220.74,-74.4 210.5,-65 199.71,-55.1 186.06,-47.05 173.05,-40.8"/>
<polygon fill="black" stroke="black" points="174.75,-37.73 164.2,-36.81 171.87,-44.11 174.75,-37.73"/>
<text text-anchor="middle" x="261" y="-68.8" font-family="Times New Roman,serif" font-size="14.00">Semaphore34</text>
</g>
<!-- Activity4&#45;&gt;Activity1 -->
<g id="edge9" class="edge">
<title>Activity4&#45;&gt;Activity1</title>
<path fill="none" stroke="red" d="M96.01,-34.68C67.32,-45.37 27.83,-65.28 9.5,-98 -5.82,-125.36 4.36,-161.03 15.82,-186.45"/>
<polygon fill="red" stroke="red" points="12.59,-187.8 20.08,-195.29 18.89,-184.76 12.59,-187.8"/>
<text text-anchor="middle" x="48" y="-117.8" font-family="Times New Roman,serif" font-size="14.00">Semaphore41</text>
</g>
<!-- Mutex1 -->
<g id="node5" class="node">
<title>Mutex1</title>
<polygon fill="none" stroke="black" points="206.8,-225.06 159.5,-237.5 112.2,-225.06 130.27,-204.94 188.73,-204.94 206.8,-225.06"/>
<text text-anchor="middle" x="159.5" y="-215.8" font-family="Times New Roman,serif" font-size="14.00">Mutex1</text>
</g>
<!-- Mutex1&#45;&gt;Activity2 -->
<g id="edge1" class="edge">
<title>Mutex1&#45;&gt;Activity2</title>
<path fill="none" stroke="black" stroke-dasharray="5,2" d="M151.46,-204.67C147.33,-197.03 142.54,-187.23 139.5,-178 135.94,-167.21 133.56,-154.81 132.01,-144.46"/>
</g>
<!-- Mutex1&#45;&gt;Activity3 -->
<g id="edge2" class="edge">
<title>Mutex1&#45;&gt;Activity3</title>
<path fill="none" stroke="black" stroke-dasharray="5,2" d="M192.75,-208.89C208.47,-202.63 226.04,-192.81 236.5,-178 243.29,-168.38 245.45,-155.45 245.84,-144.5"/>
</g>
<!-- Mutex2 -->
<g id="node6" class="node">
<title>Mutex2</title>
<polygon fill="none" stroke="black" points="334.8,-225.06 287.5,-237.5 240.2,-225.06 258.27,-204.94 316.73,-204.94 334.8,-225.06"/>
<text text-anchor="middle" x="287.5" y="-215.8" font-family="Times New Roman,serif" font-size="14.00">Mutex2</text>
</g>
<!-- Mutex2&#45;&gt;Activity2 -->
<g id="edge3" class="edge">
<title>Mutex2&#45;&gt;Activity2</title>
<path fill="none" stroke="black" stroke-dasharray="5,2" d="M278.73,-204.89C270.09,-192.44 255.84,-174.31 239.5,-163 226.78,-154.2 190.39,-141.57 162.92,-132.76"/>
</g>
<!-- Mutex2&#45;&gt;Activity3 -->
<g id="edge4" class="edge">
<title>Mutex2&#45;&gt;Activity3</title>
<path fill="none" stroke="black" stroke-dasharray="5,2" d="M290.1,-204.65C291.62,-193.03 292.27,-176.25 286.5,-163 283.51,-156.13 278.73,-149.84 273.46,-144.38"/>
</g>
</g>
</svg>
